HIERARCHY
ROOT Pelvis
{
	OFFSET 0.000000 0.000000 0.000000
	CHANNELS 6 Xposition Yposition Zposition Xrotation Yrotation Zrotation
	JOINT LeftUpLeg_virtual
	{
		OFFSET 0.000000 0.000000 0.000000
		CHANNELS 3 Xrotation Yrotation Zrotation
		JOINT LeftUpLeg
		{
			OFFSET 18.735201 -5.666702 -4.541200
			CHANNELS 3 Xrotation Yrotation Zrotation
			JOINT LeftLeg
			{
				OFFSET -0.021200 -31.938179 0.493100
				CHANNELS 3 Xrotation Yrotation Zrotation
				JOINT LeftFoot
				{
					OFFSET 0.021200 -31.938179 -4.336299
					CHANNELS 3 Xrotation Yrotation Zrotation
					JOINT LeftToeBase
					{
						OFFSET 0.943001 -26.722000 15.023500
						CHANNELS 3 Xrotation Yrotation Zrotation
						End Site
						{
							OFFSET 0 0 0
						}
					}
				}
			}
		}
	}
	JOINT RightUpLeg_virtual
	{
		OFFSET 0.000000 0.000000 0.000000
		CHANNELS 3 Xrotation Yrotation Zrotation
		JOINT RightUpLeg
		{
			OFFSET -18.735201 -5.666702 -4.541200
			CHANNELS 3 Xrotation Yrotation Zrotation
			JOINT RightLeg
			{
				OFFSET 0.018946 -31.938133 0.493100
				CHANNELS 3 Xrotation Yrotation Zrotation
				JOINT RightFoot
				{
					OFFSET -0.018946 -31.938126 -4.336299
					CHANNELS 3 Xrotation Yrotation Zrotation
					JOINT RightToeBase
					{
						OFFSET -0.943001 -26.722004 15.023500
						CHANNELS 3 Xrotation Yrotation Zrotation
						End Site
						{
							OFFSET 0 0 0
						}
					}
				}
			}
		}
	}
	JOINT Hips_virtual
	{
		OFFSET 0.000000 0.000000 0.000000
		CHANNELS 3 Xrotation Yrotation Zrotation
		JOINT Hips
		{
			OFFSET -0.000000 -0.000000 -0.000000
			CHANNELS 3 Xrotation Yrotation Zrotation
			JOINT Spine
			{
				OFFSET 0.000000 10.199997 -0.299500
				CHANNELS 3 Xrotation Yrotation Zrotation
				JOINT Spine1
				{
					OFFSET 0.000000 11.900002 -1.516600
					CHANNELS 3 Xrotation Yrotation Zrotation
					JOINT Spine2
					{
						OFFSET 0.000000 13.600006 -2.842500
						CHANNELS 3 Xrotation Yrotation Zrotation
						JOINT Neck_virtual
						{
							OFFSET 0.000000 0.000000 0.000000
							CHANNELS 3 Xrotation Yrotation Zrotation
							JOINT Neck
							{
								OFFSET 0.000000 9.624100 -2.890100
								CHANNELS 3 Xrotation Yrotation Zrotation
								JOINT Head
								{
									OFFSET 0.000000 14.068802 -1.351900
									CHANNELS 3 Xrotation Yrotation Zrotation
									End Site
									{
										OFFSET 0 0 0
									}
								}
							}
						}
						JOINT LeftShoulder_virtual
						{
							OFFSET 0.000000 0.000000 0.000000
							CHANNELS 3 Xrotation Yrotation Zrotation
							JOINT LeftShoulder
							{
								OFFSET 15.263000 10.923401 -0.547700
								CHANNELS 3 Xrotation Yrotation Zrotation
								JOINT LeftArm
								{
									OFFSET 25.438599 -2.830597 -13.032500
									CHANNELS 3 Xrotation Yrotation Zrotation
									JOINT LeftForeArm
									{
										OFFSET 29.960503 0.000000 0.000000
										CHANNELS 3 Xrotation Yrotation Zrotation
										JOINT LeftHand
										{
											OFFSET 27.849251 0.000000 0.000000
											CHANNELS 3 Xrotation Yrotation Zrotation
											End Site
											{
												OFFSET 0 0 0
											}
										}
									}
								}
							}
						}
						JOINT RightShoulder_virtual
						{
							OFFSET 0.000000 0.000000 0.000000
							CHANNELS 3 Xrotation Yrotation Zrotation
							JOINT RightShoulder
							{
								OFFSET -15.263000 10.923401 -0.547700
								CHANNELS 3 Xrotation Yrotation Zrotation
								JOINT RightArm
								{
									OFFSET -25.438599 -2.830597 -13.032500
									CHANNELS 3 Xrotation Yrotation Zrotation
									JOINT RightForeArm
									{
										OFFSET -29.960503 0.000000 0.000000
										CHANNELS 3 Xrotation Yrotation Zrotation
										JOINT RightHand
										{
											OFFSET -27.849251 0.000000 0.000000
											CHANNELS 3 Xrotation Yrotation Zrotation
											End Site
											{
												OFFSET 0 0 0
											}
										}
									}
								}
							}
						}
					}
				}
			}
		}
	}
}
MOTION
Frames: 4
Frame Time: 0.03333333
-3.444327 99.970238 183.210114 0.000000 0.000000 0.000000 15.093743 0.216340 0.295495 -21.280376 12.645853 17.023896 60.172942 9.545132 2.415384 8.558598 8.572460 5.551160 0.000000 0.000000 0.000000 -7.631850 -10.687636 7.680014 -43.108975 -7.909179 -8.288762 63.024327 2.358238 -10.164670 5.453744 5.940665 -3.160882 0.000000 0.000000 0.000000 7.351868 0.543702 1.383792 14.438094 13.130176 -3.615747 -7.283313 -1.118194 1.303844 -2.561318 -0.507455 0.292793 0.000000 0.000000 0.000000 -5.189206 -0.436176 -2.181976 -2.074741 0.353064 -0.104672 0.000000 0.000000 0.000000 3.326217 1.270697 2.485764 3.073712 -3.966207 27.444586 -79.381613 -22.825061 -0.407277 -20.163996 -36.262048 4.098820 0.000000 0.000000 0.000000 -2.112428 -4.658990 -3.600426 1.582343 -5.465985 -27.545118 -74.941935 34.443599 -5.414954 -54.764163 69.600037 27.009816 0.000000 0.000000 0.000000 
-3.817605 98.362915 187.118622 0.000000 0.000000 0.000000 14.532155 0.654413 0.038643 -21.951234 12.675775 16.832689 58.350654 9.445432 2.234265 7.329822 8.621656 5.071055 0.000000 0.000000 0.000000 -8.691047 -9.134458 7.756701 -44.423769 -7.391609 -8.237836 62.809238 2.057432 -10.362399 6.101709 5.796480 -4.038452 0.000000 0.000000 0.000000 6.668206 0.330768 1.410919 12.999947 14.309665 -3.695770 -7.182139 -1.413220 1.485078 -2.459953 -0.680843 0.403395 0.000000 0.000000 0.000000 -4.672758 -0.646725 -1.930583 -1.800067 0.371150 0.021426 0.000000 0.000000 0.000000 3.335974 1.045875 2.625734 3.035461 -3.956297 27.958485 -79.483280 -22.242958 -0.593521 -20.245528 -35.294579 3.791688 0.000000 0.000000 0.000000 -2.136854 -4.858858 -3.498974 1.444030 -5.880669 -27.564666 -73.440509 34.267131 -8.370353 -50.975085 69.146171 22.905074 0.000000 0.000000 0.000000 
-4.097703 96.963318 191.143036 0.000000 0.000000 0.000000 13.714915 0.623929 -0.219775 -22.960530 12.539599 16.569605 56.490852 9.040748 2.109337 6.031301 8.301214 4.422261 0.000000 0.000000 0.000000 -9.428099 -8.020319 7.840976 -45.359071 -7.028793 -8.211796 62.510813 1.680160 -10.480297 6.506167 5.497108 -4.813813 0.000000 0.000000 0.000000 5.952602 0.219902 1.404463 11.432066 15.631728 -3.933600 -7.063718 -1.720596 1.659276 -2.330534 -0.860972 0.508981 0.000000 0.000000 0.000000 -4.195801 -0.890684 -1.688941 -1.542990 0.357741 0.148224 0.000000 0.000000 0.000000 3.412992 0.833828 2.788732 3.059784 -3.921909 28.621385 -79.384768 -21.763715 -0.599589 -20.204036 -34.422559 3.606956 0.000000 0.000000 0.000000 -2.131814 -5.036855 -3.371257 1.352592 -6.214829 -27.546310 -71.910527 33.710016 -11.179281 -46.785235 68.057432 18.559359 0.000000 0.000000 0.000000 
-4.297066 96.237228 195.041504 0.000000 0.000000 0.000000 12.863282 0.390396 -0.432301 -24.046350 12.341968 16.338157 54.916620 8.392233 2.098646 4.896901 7.643351 3.781125 0.000000 0.000000 0.000000 -9.979782 -7.644714 7.982837 -46.094037 -6.910285 -8.126924 62.038567 1.250015 -10.483746 6.662504 5.053949 -5.428426 0.000000 0.000000 0.000000 5.340167 0.125194 1.422776 10.097467 16.901889 -4.006659 -6.914247 -2.061103 1.825849 -2.171515 -1.052331 0.609964 0.000000 0.000000 0.000000 -3.865064 -1.209097 -1.577158 -1.347084 0.298613 0.210249 0.000000 0.000000 0.000000 3.501196 0.604362 2.989870 3.108659 -3.940505 29.464886 -79.250207 -21.535141 -0.438522 -20.072922 -33.641584 3.586753 0.000000 0.000000 0.000000 -2.085279 -5.216770 -3.214042 1.337855 -6.496165 -27.479885 -70.043918 32.974104 -13.738466 -42.813005 66.802740 14.772138 0.000000 0.000000 0.000000 
